<?xml version="1.0" standalone="no"?>
<!DOCTYPE svg PUBLIC "-//W3C//DTD SVG 20010904//EN"
 "http://www.w3.org/TR/2001/REC-SVG-20010904/DTD/svg10.dtd">
<svg version="1.0" xmlns="http://www.w3.org/2000/svg"
 width="100.000000pt" height="100.000000pt" viewBox="0 0 100.000000 100.000000"
 preserveAspectRatio="xMidYMid meet">
<metadata>
Created by potrace 1.14, written by Peter Selinger 2001-2017
</metadata>
<g transform="translate(0.000000,100.000000) scale(0.100000,-0.100000)"
fill="#000000" stroke="none">
<path d="M448 831 c-15 -5 -40 -18 -57 -30 -16 -11 -45 -23 -64 -25 -48 -7
-90 -30 -111 -60 -21 -32 -26 -78 -29 -239 -3 -136 -6 -147 -54 -147 -24 0
-63 35 -63 58 0 7 -3 12 -7 10 -71 -34 -72 -38 -32 -104 42 -70 157 -85 221
-30 27 22 58 99 58 141 l0 25 113 1 c127 1 147 3 187 24 140 72 140 288 1 359
-39 21 -124 29 -163 17z m-90 -240 c8 -4 12 -19 10 -32 -2 -19 -9 -24 -33 -24
-33 0 -45 25 -25 50 14 17 29 19 48 6z"/>
<path d="M731 755 c68 -115 20 -273 -103 -340 -48 -26 -60 -29 -167 -29 l-115
-1 0 -105 -1 -105 57 -3 56 -3 13 73 c6 40 15 76 18 80 9 10 341 16 348 6 5
-9 11 -71 12 -135 l1 -33 65 0 c60 0 65 2 66 23 1 12 2 36 4 52 11 121 15 377
6 412 -22 81 -78 122 -176 129 -27 3 -62 6 -77 9 l-27 4 20 -34z"/>
<path d="M523 287 c-3 -6 -7 -20 -9 -31 -1 -12 -6 -36 -10 -53 -6 -32 -6 -33
30 -33 20 0 37 3 37 8 1 4 3 21 5 37 2 17 6 40 9 53 3 12 2 23 -2 23 -35 6
-54 5 -60 -4z"/>
<path d="M733 238 c4 -67 7 -71 47 -74 l30 -2 -1 64 c-1 35 -4 65 -8 65 -3 1
-21 2 -39 3 l-33 2 4 -58z"/>
</g>
</svg>
