<svg width="16" height="16" fill="none" xmlns="http://www.w3.org/2000/svg"><path fill="#EBD1FF" d="M0 0h16v16H0z"/><path fill-rule="evenodd" clip-rule="evenodd" d="M3.429 2.239l5.326 5.185a.8.8 0 010 1.152l-5.326 5.185a.853.853 0 01-1.184 0 .8.8 0 010-1.152L6.98 8 2.245 3.39a.8.8 0 010-1.151.853.853 0 011.184 0z" fill="#7033AC"/><path fill-rule="evenodd" clip-rule="evenodd" d="M12.571 2.239L7.245 7.424a.8.8 0 000 1.152l5.326 5.185a.853.853 0 001.184 0 .8.8 0 000-1.152L9.02 8l4.734-4.61a.8.8 0 000-1.151.853.853 0 00-1.184 0z" fill="#7033AC"/></svg>