<svg width="12" height="12" fill="none" xmlns="http://www.w3.org/2000/svg"><path fill-rule="evenodd" clip-rule="evenodd" d="M1.429.239l5.326 5.185a.8.8 0 010 1.152l-5.326 5.185a.853.853 0 01-1.184 0 .8.8 0 010-1.152L4.98 6 .245 1.39a.8.8 0 010-1.151.853.853 0 011.184 0z" fill="#A65CF0"/><path fill-rule="evenodd" clip-rule="evenodd" d="M10.571.239L5.245 5.424a.8.8 0 000 1.152l5.326 5.185a.853.853 0 001.184 0 .8.8 0 000-1.152L7.02 6l4.734-4.61a.8.8 0 000-1.151.853.853 0 00-1.184 0z" fill="#A65CF0"/></svg>