<?xml version="1.0" encoding="utf-8"?><svg viewBox="0 0 800 800" xmlns="http://www.w3.org/2000/svg" xmlns:xlink="http://www.w3.org/1999/xlink"><style>:root>svg{display:none}:root>svg:target{display:block}</style><svg viewBox="0 0 1024 1024" class="aicon" id="costs" xmlns="http://www.w3.org/2000/svg"><path d="M32 512a480 480 0 1 0 960 0 480 480 0 1 0-960 0Z"/><path d="M601.6 473.6C544 409.6 544 332.8 544 224c-179.2 70.4-134.4 262.4-140.8 326.4-44.8-38.4-57.6-128-57.6-128-51.2 25.6-76.8 89.6-76.8 140.8 0 128 108.8 236.8 243.2 236.8s243.2-102.4 243.2-236.8c0-76.8-57.6-115.2-57.6-217.6-83.2 25.6-96 89.6-96 128z"/><path d="M505.6 537.6c83.2 32 64 121.6 64 147.2 19.2-19.2 25.6-57.6 25.6-57.6 19.2 12.8 32 38.4 32 64 0 57.6-51.2 108.8-108.8 108.8s-108.8-51.2-108.8-108.8c6.4-57.6 96-102.4 96-153.6z"/></svg><svg viewBox="0 0 512 512" style="enable-background:new 0 0 512 512" xml:space="preserve" id="right-arrow" xmlns="http://www.w3.org/2000/svg"><path d="m506.134 241.843-.018-.019-104.504-104c-7.829-7.791-20.492-7.762-28.285.068-7.792 7.829-7.762 20.492.067 28.284L443.558 236H20c-11.046 0-20 8.954-20 20s8.954 20 20 20h423.557l-70.162 69.824c-7.829 7.792-7.859 20.455-.067 28.284 7.793 7.831 20.457 7.858 28.285.068l104.504-104 .018-.019c7.833-7.818 7.808-20.522-.001-28.314z" fill="#dd0f0f"/></svg></svg>