<svg width="99" height="28" fill="none" xmlns="http://www.w3.org/2000/svg"><g clip-path="url(#clip0_18_24)"><g clip-path="url(#clip1_18_24)"><path d="M97.816 19.85H77.902l1-2.114 16.613-.03c.562 0 1.044-.417 1.144-.994l2.3-13.366a1.24 1.24 0 00-.25-.986 1.177 1.177 0 00-.399-.318 1.135 1.135 0 00-.49-.116l-21.135-.073-.18-.881C76.39.41 75.901 0 75.346 0h-5.166c-.314 0-.614.13-.835.359a1.25 1.25 0 00-.346.866c0 .325.124.637.346.867.221.23.521.358.834.358h4.21l.79 3.895 1.943 9.764-2.502 4.238a1.252 1.252 0 00-.1 1.277c.2.413.605.673 1.053.673h2.1a3.645 3.645 0 00-.688 2.142c0 1.964 1.538 3.561 3.43 3.561 1.894 0 3.432-1.597 3.432-3.561 0-.774-.248-1.527-.689-2.142h5.387a3.645 3.645 0 00-.689 2.142c0 1.964 1.539 3.561 3.431 3.561 1.893 0 3.431-1.597 3.431-3.561 0-.774-.247-1.527-.688-2.142h3.788c.65 0 1.181-.548 1.181-1.225a1.253 1.253 0 00-.35-.864 1.163 1.163 0 00-.834-.358zM77.176 4.27l19.256.065-1.886 10.961-15.126.028L77.176 4.27zm3.24 21.266c-.581 0-1.056-.493-1.056-1.097s.475-1.097 1.057-1.097 1.056.493 1.056 1.097c0 .29-.11.57-.309.775a1.037 1.037 0 01-.747.322zm10.873 0c-.582 0-1.057-.493-1.057-1.097s.475-1.097 1.056-1.097c.582 0 1.057.493 1.057 1.097 0 .29-.111.57-.31.775a1.038 1.038 0 01-.746.322z" fill="#A65CF0"/><ellipse cx="65" cy="12.5" rx="7" ry="7.5" fill="#FF862F"/><path d="M67.495 12.43c0 1.247-.205 2.17-.615 2.77-.407.598-1.035.898-1.885.898-.824 0-1.445-.31-1.865-.928-.417-.619-.625-1.532-.625-2.74 0-1.26.203-2.187.61-2.783.407-.598 1.034-.898 1.88-.898.824 0 1.445.313 1.865.938.424.625.635 1.54.635 2.744zm-3.491 0c0 .876.075 1.505.224 1.885.154.378.409.567.767.567.352 0 .606-.192.762-.576.156-.384.234-1.01.234-1.875 0-.876-.08-1.504-.239-1.885-.156-.384-.409-.576-.757-.576-.355 0-.609.192-.762.576-.153.38-.23 1.009-.23 1.885z" fill="#fff"/></g><path d="M24.98 22.85c-.652-1.572-1.599-3-2.787-4.203a12.977 12.977 0 00-4.131-2.835l-.042-.018a8.752 8.752 0 003.554-7.07C21.574 3.904 17.737 0 13 0S4.426 3.905 4.426 8.724c0 2.909 1.4 5.487 3.554 7.073-.014.008-.028.011-.042.018a12.864 12.864 0 00-4.131 2.835 13.227 13.227 0 00-2.787 4.204A13.269 13.269 0 000 27.712a.285.285 0 00.17.266c.033.014.07.022.107.022H2.35a.278.278 0 00.277-.274 10.576 10.576 0 013.035-7.187c1.96-1.994 4.564-3.092 7.337-3.092 2.773 0 5.376 1.098 7.337 3.092a10.577 10.577 0 013.035 7.187.276.276 0 00.277.274h2.074a.273.273 0 00.198-.085.282.282 0 00.079-.203 13.303 13.303 0 00-1.02-4.862zM13 14.774c-1.587 0-3.08-.63-4.204-1.773a6.064 6.064 0 01-1.743-4.277c0-1.615.62-3.135 1.743-4.278A5.857 5.857 0 0113 2.673c1.587 0 3.08.63 4.204 1.773a6.064 6.064 0 011.743 4.278A6.064 6.064 0 0117.204 13 5.857 5.857 0 0113 14.774z" fill="#A65CF0"/></g><defs><clipPath id="clip0_18_24"><path fill="#fff" d="M0 0h99v28H0z"/></clipPath><clipPath id="clip1_18_24"><path fill="#fff" transform="translate(58)" d="M0 0h41v28H0z"/></clipPath></defs></svg>